<?xml version="1.0" standalone="no"?>
<!DOCTYPE svg PUBLIC "-//W3C//DTD SVG 20010904//EN"
 "http://www.w3.org/TR/2001/REC-SVG-20010904/DTD/svg10.dtd">
<svg version="1.0" xmlns="http://www.w3.org/2000/svg"
 width="640.000000pt" height="640.000000pt" viewBox="0 0 640.000000 640.000000"
 preserveAspectRatio="xMidYMid meet">
<metadata>
Created by potrace 1.11, written by Peter Selinger 2001-2013
</metadata>
<g transform="translate(0.000000,640.000000) scale(0.100000,-0.100000)"
fill="#000000" stroke="none">
<path d="M475 3740 c0 -99 4 -160 10 -161 6 -1 102 -3 215 -4 113 -1 210 -3
216 -4 8 -1 12 -153 12 -558 0 -307 1 -573 1 -591 l1 -32 188 2 187 3 0 588
c0 323 2 588 5 588 3 1 87 2 188 3 l182 1 48 100 c27 55 54 116 62 135 7 19
19 42 27 51 7 8 13 21 13 27 0 9 -166 12 -678 12 l-677 0 0 -160z"/>
<path d="M2931 3893 c13 -30 80 -171 114 -238 l40 -80 205 -1 c308 -3 361 -6
409 -23 78 -29 141 -98 176 -196 26 -70 35 -209 21 -326 -10 -88 -14 -100 -46
-166 -35 -70 -82 -114 -141 -132 -42 -13 -375 -19 -386 -7 -4 4 -7 134 -8 289
l0 282 -186 3 -186 2 0 -455 0 -456 406 4 c223 2 422 7 441 11 81 18 222 78
255 109 7 7 24 20 39 31 29 21 94 104 124 157 29 53 72 194 80 264 13 111 7
335 -12 414 -61 266 -210 418 -481 493 -75 20 -105 22 -474 26 -216 2 -392 0
-390 -5z"/>
<path d="M4399 3873 c-2 -86 1 -284 5 -291 2 -4 98 -7 213 -7 114 1 214 -1
221 -3 9 -3 12 -131 12 -593 l0 -589 188 2 187 3 1 575 c1 316 2 582 3 590 1
14 26 15 179 15 164 -2 179 0 200 18 12 11 22 25 22 31 0 6 24 61 54 121 29
61 56 121 60 133 l7 22 -675 0 -676 0 -1 -27z"/>
<path d="M1880 3290 c-10 -6 -12 -289 -2 -291 4 -1 224 -2 490 -3 l482 -2 1
48 c0 26 0 68 0 93 0 25 0 71 0 103 l-1 57 -481 0 c-264 0 -484 -2 -489 -5z"/>
</g>
</svg>
